<svg width="349" height="100" viewBox="0 0 349 100" fill="none" xmlns="http://www.w3.org/2000/svg">
<path d="M324 0.0996094C337.752 0.0996094 348.9 11.2481 348.9 25V75C348.9 88.7519 337.752 99.9004 324 99.9004H50.0996V0.0996094H324Z" stroke="black" stroke-width="0.2"/>
<path d="M79.995 69V32.6364H92.9567C95.7857 32.6364 98.1295 33.1513 99.9879 34.1811C101.846 35.2109 103.237 36.6196 104.161 38.407C105.084 40.1825 105.545 42.183 105.545 44.4084C105.545 46.6456 105.078 48.6579 104.143 50.4453C103.219 52.2209 101.823 53.6295 99.9524 54.6712C98.094 55.701 95.7562 56.2159 92.9389 56.2159H84.0256V51.5639H92.4418C94.2292 51.5639 95.6792 51.2562 96.7919 50.6406C97.9046 50.0133 98.7214 49.161 99.2422 48.0838C99.763 47.0066 100.023 45.7815 100.023 44.4084C100.023 43.0353 99.763 41.8161 99.2422 40.7507C98.7214 39.6854 97.8987 38.8509 96.7741 38.2472C95.6615 37.6435 94.1937 37.3416 92.3707 37.3416H85.4815V69H79.995ZM143.565 50.8182C143.565 54.7008 142.855 58.0388 141.434 60.8324C140.014 63.6141 138.066 65.7566 135.593 67.2599C133.13 68.7514 130.331 69.4972 127.194 69.4972C124.045 69.4972 121.234 68.7514 118.76 67.2599C116.298 65.7566 114.357 63.6082 112.936 60.8146C111.516 58.0211 110.806 54.6889 110.806 50.8182C110.806 46.9356 111.516 43.6035 112.936 40.8217C114.357 38.0282 116.298 35.8857 118.76 34.3942C121.234 32.8909 124.045 32.1392 127.194 32.1392C130.331 32.1392 133.13 32.8909 135.593 34.3942C138.066 35.8857 140.014 38.0282 141.434 40.8217C142.855 43.6035 143.565 46.9356 143.565 50.8182ZM138.132 50.8182C138.132 47.8589 137.652 45.3672 136.693 43.343C135.746 41.3071 134.444 39.7682 132.787 38.7266C131.142 37.6731 129.277 37.1463 127.194 37.1463C125.099 37.1463 123.229 37.6731 121.583 38.7266C119.938 39.7682 118.636 41.3071 117.677 43.343C116.73 45.3672 116.257 47.8589 116.257 50.8182C116.257 53.7775 116.73 56.2751 117.677 58.3111C118.636 60.3352 119.938 61.8741 121.583 62.9276C123.229 63.9692 125.099 64.4901 127.194 64.4901C129.277 64.4901 131.142 63.9692 132.787 62.9276C134.444 61.8741 135.746 60.3352 136.693 58.3111C137.652 56.2751 138.132 53.7775 138.132 50.8182ZM150.405 69V32.6364H163.367C166.196 32.6364 168.54 33.1513 170.398 34.1811C172.257 35.2109 173.647 36.6196 174.571 38.407C175.494 40.1825 175.956 42.183 175.956 44.4084C175.956 46.6456 175.488 48.6579 174.553 50.4453C173.63 52.2209 172.233 53.6295 170.363 54.6712C168.504 55.701 166.166 56.2159 163.349 56.2159H154.436V51.5639H162.852C164.639 51.5639 166.089 51.2562 167.202 50.6406C168.315 50.0133 169.132 49.161 169.652 48.0838C170.173 47.0066 170.434 45.7815 170.434 44.4084C170.434 43.0353 170.173 41.8161 169.652 40.7507C169.132 39.6854 168.309 38.8509 167.184 38.2472C166.072 37.6435 164.604 37.3416 162.781 37.3416H155.892V69H150.405ZM205.772 32.6364H211.276V56.5533C211.276 59.0982 210.678 61.3532 209.483 63.3182C208.287 65.2713 206.606 66.8101 204.44 67.9347C202.274 69.0473 199.735 69.6037 196.823 69.6037C193.923 69.6037 191.39 69.0473 189.224 67.9347C187.057 66.8101 185.376 65.2713 184.181 63.3182C182.985 61.3532 182.388 59.0982 182.388 56.5533V32.6364H187.874V56.1094C187.874 57.7547 188.235 59.2166 188.957 60.495C189.691 61.7734 190.727 62.7796 192.064 63.5135C193.402 64.2356 194.988 64.5966 196.823 64.5966C198.67 64.5966 200.262 64.2356 201.599 63.5135C202.949 62.7796 203.979 61.7734 204.689 60.495C205.411 59.2166 205.772 57.7547 205.772 56.1094V32.6364ZM219.253 69V32.6364H224.739V64.277H241.217V69H219.253ZM252.403 69H246.579L259.665 32.6364H266.004L279.089 69H273.266L262.985 39.2415H262.701L252.403 69ZM253.379 54.7599H272.271V59.3764H253.379V54.7599ZM284.341 69V32.6364H297.302C300.12 32.6364 302.457 33.1217 304.316 34.0923C306.186 35.063 307.583 36.4065 308.506 38.1229C309.43 39.8274 309.891 41.7983 309.891 44.0355C309.891 46.2609 309.424 48.2199 308.488 49.9126C307.565 51.5935 306.168 52.9015 304.298 53.8366C302.44 54.7718 300.102 55.2393 297.285 55.2393H287.466V50.5163H296.787C298.563 50.5163 300.007 50.2618 301.12 49.7528C302.244 49.2438 303.067 48.504 303.588 47.5334C304.109 46.5627 304.369 45.3968 304.369 44.0355C304.369 42.6624 304.103 41.4728 303.57 40.4666C303.049 39.4605 302.227 38.6911 301.102 38.1584C299.989 37.6139 298.528 37.3416 296.716 37.3416H289.827V69H284.341ZM302.292 52.5938L311.276 69H305.026L296.219 52.5938H302.292Z" fill="#090300"/>
<path d="M0 25C0 11.1929 11.1929 0 25 0H50V100H25C11.1929 100 0 88.8071 0 75V25Z" fill="#FF7F3E"/>
</svg>
